o sphere
usemtl default
v 0 1 0
v 0 1 0
v 0 1 0
v 0 1 0
v 0 1 0
v 0 1 0
v 0 1 0
v 0 1 0
v 0 1 0
v -0.3826834261417389 0.9238795042037964 0
v -0.27059805393218994 0.9238795042037964 0.27059805393218994
v -2.3432602348612458e-17 0.9238795042037964 0.3826834261417389
v 0.27059805393218994 0.9238795042037964 0.27059805393218994
v 0.3826834261417389 0.9238795042037964 4.6865204697224915e-17
v 0.27059805393218994 0.9238795042037964 -0.27059805393218994
v 7.029780539147615e-17 0.9238795042037964 -0.3826834261417389
v -0.27059805393218994 0.9238795042037964 -0.27059805393218994
v -0.3826834261417389 0.9238795042037964 -9.373040939444983e-17
v -0.7071067690849304 0.7071067690849304 0
v -0.5 0.7071067690849304 0.5
v -4.329780301713277e-17 0.7071067690849304 0.7071067690849304
v 0.5 0.7071067690849304 0.5
v 0.7071067690849304 0.7071067690849304 8.659560603426554e-17
v 0.5 0.7071067690849304 -0.5
v 1.2989340243395341e-16 0.7071067690849304 -0.7071067690849304
v -0.5 0.7071067690849304 -0.5
v -0.7071067690849304 0.7071067690849304 -1.7319121206853109e-16
v -0.9238795042037964 0.3826834261417389 0
v -0.6532815098762512 0.3826834261417389 0.6532815098762512
v -5.657130560897519e-17 0.3826834261417389 0.9238795042037964
v 0.6532815098762512 0.3826834261417389 0.6532815098762512
v 0.9238795042037964 0.3826834261417389 1.1314261121795038e-16
v 0.6532815098762512 0.3826834261417389 -0.6532815098762512
v 1.6971391682692557e-16 0.3826834261417389 -0.9238795042037964
v -0.6532815098762512 0.3826834261417389 -0.6532815098762512
v -0.9238795042037964 0.3826834261417389 -2.2628522243590076e-16
v -1 6.123234262925839e-17 0
v -0.7071067690849304 6.123234262925839e-17 0.7071067690849304
v -6.123234262925839e-17 6.123234262925839e-17 1
v 0.7071067690849304 6.123234262925839e-17 0.7071067690849304
v 1 6.123234262925839e-17 1.2246468525851679e-16
v 0.7071067690849304 6.123234262925839e-17 -0.7071067690849304
v 1.8369701465288538e-16 6.123234262925839e-17 -1
v -0.7071067690849304 6.123234262925839e-17 -0.7071067690849304
v -1 6.123234262925839e-17 -2.4492937051703357e-16
v -0.9238795042037964 -0.3826834261417389 0
v -0.6532815098762512 -0.3826834261417389 0.6532815098762512
v -5.657130560897519e-17 -0.3826834261417389 0.9238795042037964
v 0.6532815098762512 -0.3826834261417389 0.6532815098762512
v 0.9238795042037964 -0.3826834261417389 1.1314261121795038e-16
v 0.6532815098762512 -0.3826834261417389 -0.6532815098762512
v 1.6971391682692557e-16 -0.3826834261417389 -0.9238795042037964
v -0.6532815098762512 -0.3826834261417389 -0.6532815098762512
v -0.9238795042037964 -0.3826834261417389 -2.2628522243590076e-16
v -0.7071067690849304 -0.7071067690849304 0
v -0.5 -0.7071067690849304 0.5
v -4.329780301713277e-17 -0.7071067690849304 0.7071067690849304
v 0.5 -0.7071067690849304 0.5
v 0.7071067690849304 -0.7071067690849304 8.659560603426554e-17
v 0.5 -0.7071067690849304 -0.5
v 1.2989340243395341e-16 -0.7071067690849304 -0.7071067690849304
v -0.5 -0.7071067690849304 -0.5
v -0.7071067690849304 -0.7071067690849304 -1.7319121206853109e-16
v -0.3826834261417389 -0.9238795042037964 0
v -0.27059805393218994 -0.9238795042037964 0.27059805393218994
v -2.3432602348612458e-17 -0.9238795042037964 0.3826834261417389
v 0.27059805393218994 -0.9238795042037964 0.27059805393218994
v 0.3826834261417389 -0.9238795042037964 4.6865204697224915e-17
v 0.27059805393218994 -0.9238795042037964 -0.27059805393218994
v 7.029780539147615e-17 -0.9238795042037964 -0.3826834261417389
v -0.27059805393218994 -0.9238795042037964 -0.27059805393218994
v -0.3826834261417389 -0.9238795042037964 -9.373040939444983e-17
v -1.2246468525851679e-16 -1 0
v -8.659560603426554e-17 -1 8.659560603426554e-17
v -7.498798786105971e-33 -1 1.2246468525851679e-16
v 8.659560603426554e-17 -1 8.659560603426554e-17
v 1.2246468525851679e-16 -1 1.4997597572211942e-32
v 8.659560603426554e-17 -1 -8.659560603426554e-17
v 2.2496396358317913e-32 -1 -1.2246468525851679e-16
v -8.659560603426554e-17 -1 -8.659560603426554e-17
v -1.2246468525851679e-16 -1 -2.9995195144423884e-32
vt 0 1
vt 0.125 1
vt 0.25 1
vt 0.375 1
vt 0.5 1
vt 0.625 1
vt 0.75 1
vt 0.875 1
vt 1 1
vt 0 0.875
vt 0.125 0.875
vt 0.25 0.875
vt 0.375 0.875
vt 0.5 0.875
vt 0.625 0.875
vt 0.75 0.875
vt 0.875 0.875
vt 1 0.875
vt 0 0.75
vt 0.125 0.75
vt 0.25 0.75
vt 0.375 0.75
vt 0.5 0.75
vt 0.625 0.75
vt 0.75 0.75
vt 0.875 0.75
vt 1 0.75
vt 0 0.625
vt 0.125 0.625
vt 0.25 0.625
vt 0.375 0.625
vt 0.5 0.625
vt 0.625 0.625
vt 0.75 0.625
vt 0.875 0.625
vt 1 0.625
vt 0 0.5
vt 0.125 0.5
vt 0.25 0.5
vt 0.375 0.5
vt 0.5 0.5
vt 0.625 0.5
vt 0.75 0.5
vt 0.875 0.5
vt 1 0.5
vt 0 0.375
vt 0.125 0.375
vt 0.25 0.375
vt 0.375 0.375
vt 0.5 0.375
vt 0.625 0.375
vt 0.75 0.375
vt 0.875 0.375
vt 1 0.375
vt 0 0.25
vt 0.125 0.25
vt 0.25 0.25
vt 0.375 0.25
vt 0.5 0.25
vt 0.625 0.25
vt 0.75 0.25
vt 0.875 0.25
vt 1 0.25
vt 0 0.125
vt 0.125 0.125
vt 0.25 0.125
vt 0.375 0.125
vt 0.5 0.125
vt 0.625 0.125
vt 0.75 0.125
vt 0.875 0.125
vt 1 0.125
vt 0 0
vt 0.125 0
vt 0.25 0
vt 0.375 0
vt 0.5 0
vt 0.625 0
vt 0.75 0
vt 0.875 0
vt 1 0
vn 0 1 0
vn 0 1 0
vn 0 1 0
vn 0 1 0
vn 0 1 0
vn 0 1 0
vn 0 1 0
vn 0 1 0
vn 0 1 0
vn -0.3826834261417389 0.9238795042037964 0
vn -0.27059805393218994 0.9238795042037964 0.27059805393218994
vn -2.3432602348612458e-17 0.9238795042037964 0.3826834261417389
vn 0.27059805393218994 0.9238795042037964 0.27059805393218994
vn 0.3826834261417389 0.9238795042037964 4.6865204697224915e-17
vn 0.27059805393218994 0.9238795042037964 -0.27059805393218994
vn 7.029780539147615e-17 0.9238795042037964 -0.3826834261417389
vn -0.27059805393218994 0.9238795042037964 -0.27059805393218994
vn -0.3826834261417389 0.9238795042037964 -9.373040939444983e-17
vn -0.7071067690849304 0.7071067690849304 0
vn -0.5 0.7071067690849304 0.5
vn -4.329780301713277e-17 0.7071067690849304 0.7071067690849304
vn 0.5 0.7071067690849304 0.5
vn 0.7071067690849304 0.7071067690849304 8.659560603426554e-17
vn 0.5 0.7071067690849304 -0.5
vn 1.2989340243395341e-16 0.7071067690849304 -0.7071067690849304
vn -0.5 0.7071067690849304 -0.5
vn -0.7071067690849304 0.7071067690849304 -1.7319121206853109e-16
vn -0.9238795042037964 0.3826834261417389 0
vn -0.6532815098762512 0.3826834261417389 0.6532815098762512
vn -5.657130560897519e-17 0.3826834261417389 0.9238795042037964
vn 0.6532815098762512 0.3826834261417389 0.6532815098762512
vn 0.9238795042037964 0.3826834261417389 1.1314261121795038e-16
vn 0.6532815098762512 0.3826834261417389 -0.6532815098762512
vn 1.6971391682692557e-16 0.3826834261417389 -0.9238795042037964
vn -0.6532815098762512 0.3826834261417389 -0.6532815098762512
vn -0.9238795042037964 0.3826834261417389 -2.2628522243590076e-16
vn -1 6.123234262925839e-17 0
vn -0.7071067690849304 6.123234262925839e-17 0.7071067690849304
vn -6.123234262925839e-17 6.123234262925839e-17 1
vn 0.7071067690849304 6.123234262925839e-17 0.7071067690849304
vn 1 6.123234262925839e-17 1.2246468525851679e-16
vn 0.7071067690849304 6.123234262925839e-17 -0.7071067690849304
vn 1.8369701465288538e-16 6.123234262925839e-17 -1
vn -0.7071067690849304 6.123234262925839e-17 -0.7071067690849304
vn -1 6.123234262925839e-17 -2.4492937051703357e-16
vn -0.9238795042037964 -0.3826834261417389 0
vn -0.6532815098762512 -0.3826834261417389 0.6532815098762512
vn -5.657130560897519e-17 -0.3826834261417389 0.9238795042037964
vn 0.6532815098762512 -0.3826834261417389 0.6532815098762512
vn 0.9238795042037964 -0.3826834261417389 1.1314261121795038e-16
vn 0.6532815098762512 -0.3826834261417389 -0.6532815098762512
vn 1.6971391682692557e-16 -0.3826834261417389 -0.9238795042037964
vn -0.6532815098762512 -0.3826834261417389 -0.6532815098762512
vn -0.9238795042037964 -0.3826834261417389 -2.2628522243590076e-16
vn -0.7071067690849304 -0.7071067690849304 0
vn -0.5 -0.7071067690849304 0.5
vn -4.329780301713277e-17 -0.7071067690849304 0.7071067690849304
vn 0.5 -0.7071067690849304 0.5
vn 0.7071067690849304 -0.7071067690849304 8.659560603426554e-17
vn 0.5 -0.7071067690849304 -0.5
vn 1.2989340243395341e-16 -0.7071067690849304 -0.7071067690849304
vn -0.5 -0.7071067690849304 -0.5
vn -0.7071067690849304 -0.7071067690849304 -1.7319121206853109e-16
vn -0.3826834261417389 -0.9238795042037964 0
vn -0.27059805393218994 -0.9238795042037964 0.27059805393218994
vn -2.3432602348612458e-17 -0.9238795042037964 0.3826834261417389
vn 0.27059805393218994 -0.9238795042037964 0.27059805393218994
vn 0.3826834261417389 -0.9238795042037964 4.6865204697224915e-17
vn 0.27059805393218994 -0.9238795042037964 -0.27059805393218994
vn 7.029780539147615e-17 -0.9238795042037964 -0.3826834261417389
vn -0.27059805393218994 -0.9238795042037964 -0.27059805393218994
vn -0.3826834261417389 -0.9238795042037964 -9.373040939444983e-17
vn -1.2246468525851679e-16 -1 0
vn -8.659560603426554e-17 -1 8.659560603426554e-17
vn -7.498798786105971e-33 -1 1.2246468525851679e-16
vn 8.659560603426554e-17 -1 8.659560603426554e-17
vn 1.2246468525851679e-16 -1 1.4997597572211942e-32
vn 8.659560603426554e-17 -1 -8.659560603426554e-17
vn 2.2496396358317913e-32 -1 -1.2246468525851679e-16
vn -8.659560603426554e-17 -1 -8.659560603426554e-17
vn -1.2246468525851679e-16 -1 -2.9995195144423884e-32
f 1/1/1 10/10/10 11/11/11
f 2/2/2 11/11/11 12/12/12
f 3/3/3 12/12/12 13/13/13
f 4/4/4 13/13/13 14/14/14
f 5/5/5 14/14/14 15/15/15
f 6/6/6 15/15/15 16/16/16
f 7/7/7 16/16/16 17/17/17
f 8/8/8 17/17/17 18/18/18
f 11/11/11 10/10/10 20/20/20
f 10/10/10 19/19/19 20/20/20
f 12/12/12 11/11/11 21/21/21
f 11/11/11 20/20/20 21/21/21
f 13/13/13 12/12/12 22/22/22
f 12/12/12 21/21/21 22/22/22
f 14/14/14 13/13/13 23/23/23
f 13/13/13 22/22/22 23/23/23
f 15/15/15 14/14/14 24/24/24
f 14/14/14 23/23/23 24/24/24
f 16/16/16 15/15/15 25/25/25
f 15/15/15 24/24/24 25/25/25
f 17/17/17 16/16/16 26/26/26
f 16/16/16 25/25/25 26/26/26
f 18/18/18 17/17/17 27/27/27
f 17/17/17 26/26/26 27/27/27
f 20/20/20 19/19/19 29/29/29
f 19/19/19 28/28/28 29/29/29
f 21/21/21 20/20/20 30/30/30
f 20/20/20 29/29/29 30/30/30
f 22/22/22 21/21/21 31/31/31
f 21/21/21 30/30/30 31/31/31
f 23/23/23 22/22/22 32/32/32
f 22/22/22 31/31/31 32/32/32
f 24/24/24 23/23/23 33/33/33
f 23/23/23 32/32/32 33/33/33
f 25/25/25 24/24/24 34/34/34
f 24/24/24 33/33/33 34/34/34
f 26/26/26 25/25/25 35/35/35
f 25/25/25 34/34/34 35/35/35
f 27/27/27 26/26/26 36/36/36
f 26/26/26 35/35/35 36/36/36
f 29/29/29 28/28/28 38/38/38
f 28/28/28 37/37/37 38/38/38
f 30/30/30 29/29/29 39/39/39
f 29/29/29 38/38/38 39/39/39
f 31/31/31 30/30/30 40/40/40
f 30/30/30 39/39/39 40/40/40
f 32/32/32 31/31/31 41/41/41
f 31/31/31 40/40/40 41/41/41
f 33/33/33 32/32/32 42/42/42
f 32/32/32 41/41/41 42/42/42
f 34/34/34 33/33/33 43/43/43
f 33/33/33 42/42/42 43/43/43
f 35/35/35 34/34/34 44/44/44
f 34/34/34 43/43/43 44/44/44
f 36/36/36 35/35/35 45/45/45
f 35/35/35 44/44/44 45/45/45
f 38/38/38 37/37/37 47/47/47
f 37/37/37 46/46/46 47/47/47
f 39/39/39 38/38/38 48/48/48
f 38/38/38 47/47/47 48/48/48
f 40/40/40 39/39/39 49/49/49
f 39/39/39 48/48/48 49/49/49
f 41/41/41 40/40/40 50/50/50
f 40/40/40 49/49/49 50/50/50
f 42/42/42 41/41/41 51/51/51
f 41/41/41 50/50/50 51/51/51
f 43/43/43 42/42/42 52/52/52
f 42/42/42 51/51/51 52/52/52
f 44/44/44 43/43/43 53/53/53
f 43/43/43 52/52/52 53/53/53
f 45/45/45 44/44/44 54/54/54
f 44/44/44 53/53/53 54/54/54
f 47/47/47 46/46/46 56/56/56
f 46/46/46 55/55/55 56/56/56
f 48/48/48 47/47/47 57/57/57
f 47/47/47 56/56/56 57/57/57
f 49/49/49 48/48/48 58/58/58
f 48/48/48 57/57/57 58/58/58
f 50/50/50 49/49/49 59/59/59
f 49/49/49 58/58/58 59/59/59
f 51/51/51 50/50/50 60/60/60
f 50/50/50 59/59/59 60/60/60
f 52/52/52 51/51/51 61/61/61
f 51/51/51 60/60/60 61/61/61
f 53/53/53 52/52/52 62/62/62
f 52/52/52 61/61/61 62/62/62
f 54/54/54 53/53/53 63/63/63
f 53/53/53 62/62/62 63/63/63
f 56/56/56 55/55/55 65/65/65
f 55/55/55 64/64/64 65/65/65
f 57/57/57 56/56/56 66/66/66
f 56/56/56 65/65/65 66/66/66
f 58/58/58 57/57/57 67/67/67
f 57/57/57 66/66/66 67/67/67
f 59/59/59 58/58/58 68/68/68
f 58/58/58 67/67/67 68/68/68
f 60/60/60 59/59/59 69/69/69
f 59/59/59 68/68/68 69/69/69
f 61/61/61 60/60/60 70/70/70
f 60/60/60 69/69/69 70/70/70
f 62/62/62 61/61/61 71/71/71
f 61/61/61 70/70/70 71/71/71
f 63/63/63 62/62/62 72/72/72
f 62/62/62 71/71/71 72/72/72
f 65/65/65 64/64/64 74/74/74
f 66/66/66 65/65/65 75/75/75
f 67/67/67 66/66/66 76/76/76
f 68/68/68 67/67/67 77/77/77
f 69/69/69 68/68/68 78/78/78
f 70/70/70 69/69/69 79/79/79
f 71/71/71 70/70/70 80/80/80
f 72/72/72 71/71/71 81/81/81
